<svg xmlns="http://www.w3.org/2000/svg"   viewBox="245 575 535 100"><path fill="#fdfdfd" d="M0 0h1024v1024H0z"/><path fill="#155e46" d="m365 176 82.875-.062 26.082-.028c10.582-.005 10.582-.005 15.55-.005q5.16-.002 10.318-.01 6.614-.011 13.227-.008 2.407 0 4.813-.006c14.224-.033 28.7.02 42.76 2.369l2.368.392C588.175 183.08 612.061 195.83 630 214l2.61 2.613c23.693 24.835 32.24 55.384 31.513 89.018-.926 25.366-13.21 48.95-30.123 67.369l-2.21 2.46C612.95 395.42 588.015 404.635 562 411c5.739 6.679 11.846 12.956 18.063 19.188l2.288 2.302c4.17 4.159 8.428 8.147 12.891 11.989 2.204 1.907 4.32 3.903 6.446 5.896 16.176 14.569 39.698 30.007 61.437 34.188 6.428 1.244 6.428 1.244 9.176 2.43 4.14 1.545 8.396 1.984 12.761 2.57l2.827.391c6.692.908 13.369 1.641 20.111 2.046-1.613 3.225-4.95 3.73-8.187 4.875l-2.252.798c-33.332 11.2-70.163 10.066-101.811-5.548-14.09-7.199-26.813-16.282-38.445-27.004a246 246 0 0 0-6.43-5.683c-4.157-3.62-8.013-7.509-11.875-11.438l-2.437-2.375c-2.147-2.199-4.162-4.442-6.188-6.75-4.813-5.373-9.857-10.505-14.937-15.625l-2.435-2.473c-12.463-12.484-27.27-21.306-43.102-28.853q-1.942-.946-3.857-1.946c-4.73-2.465-9.433-4.223-14.544-5.728l-2.203-.668A925 925 0 0 0 444 382v-1l3.408-.025q15.912-.116 31.824-.263 8.18-.076 16.36-.134 7.898-.056 15.795-.136 3.01-.028 6.02-.045c2.815-.017 5.63-.046 8.445-.078l2.502-.007c4.925-.07 8.961-.789 13.646-2.312q2.743-.451 5.5-.812c22.076-3.63 40.373-14.884 53.465-33.079 13.692-20.919 17.062-45.285 12.84-69.722-4.9-20.621-16.682-37.118-34.724-48.356A487 487 0 0 0 574 223l-2.148-1.277C527.078 197.38 437.68 211.216 410 211v290h-45z"/><path fill="#e6c977" d="m530 221 2.309.57c17.716 4.616 33.42 15.24 43.691 30.43a139 139 0 0 1 8 16l.878 2.007c2.67 6.854 2.567 13.59 2.497 20.868l.035 3.645c-.058 17.757-6.367 33.434-18.41 46.48l-1.64 1.918c-5.423 5.984-12.504 9.955-19.36 14.082l-2.086 1.32c-16.065 9.232-36.902 8.367-54.217 4.08-19.862-5.507-33.952-18.2-44.697-35.4l-1.613-2.52c-1.515-2.709-2.532-5.349-3.512-8.293l-1.008-2.957c-3.951-14.72-4.255-34.333 2.133-48.23l.797-1.79c8.667-19.067 23.705-32.4 43.203-40.21 13.548-4.79 29.17-6.542 43-2"/><path fill="#155e46" d="M680 710c4.623 3.738 8.637 8.327 9.454 14.343l-.063 3.587-.04 3.906-.101 4.039q-.03 2.055-.055 4.11-.07 5.008-.195 10.015a63433 63433 0 0 1-143.225.385l-3.04.005c-16.253.03-32.506.086-48.759.15q-25.008.097-50.016.119-15.436.014-30.873.096-10.58.055-21.159.04c-4.072-.005-8.143.002-12.215.04q-5.59.048-11.18.011a329 329 0 0 0-5.964.058c-8.423-.1-8.423-.1-11.705-2.404-3.461-3.846-4.601-6.816-4.45-12.09l.059-3.623.152-3.725.082-3.806q.106-4.629.293-9.256-2.144.181-4.285.387l-2.41.217c-3.48.598-5.652 2.131-8.305 4.396-2.108 3.27-2.24 5.916-2.238 9.762l-.05 3.392a701 701 0 0 0-.015 7.008c-.155 8.767-1.769 14.743-7.908 21.143-12.07 8.759-24.171 9.853-38.789 8.695-7.284-1.484-13.128-5.43-18-11-4.47-6.93-5.84-13.823-5-22 .985-3.824 2.112-7.521 4-11 3.937-1.312 6.125-.243 10 1l-1 3.188c-1.67 6.8-2.654 15.282.375 21.812 4.41 5.04 9.162 7.597 15.852 8.375 9.248.173 17.147-.288 24.265-6.547 4.973-6.03 4.97-11.778 5.07-19.265.3-17.425.3-17.425 7.438-24.563 5.82-4.082 12.073-3.336 18.875-3.187L357 708v32h287l-3-8c-.753-5.172-.681-9.555 1.563-14.312C653.47 705.66 665.017 702.664 680 710"/><path fill="#fbfbfb" d="m641.188 584.813 2.712-.038c9.302-.02 17.481.981 25.288 6.288l1.807 1.21c8.175 5.691 12.559 11.83 14.571 21.68 1.66 11.66-.062 21.382-6.945 31.063-2.306 2.823-4.639 4.883-7.621 6.984h-2v2l1.625.688c3.16 1.746 5.643 3.952 8.375 6.312-2.257 2.335-4.28 4.187-7 6-4.631-.365-7.87-3.828-11.367-6.602-3.46-1.837-4.824-1.228-8.633-.398-12.632.92-24.689 1.321-36-5l-2.086-1.129c-6.52-4.085-13.268-12.35-15.472-19.741-.782-3.765-.668-7.547-.692-11.38l-.062-2.488c-.064-10.064 3.538-16.93 10.312-24.262 9.513-8.902 20.581-11.179 33.188-11.187"/><path fill="#d0af5c" d="m530 221 2.309.57c17.716 4.616 33.42 15.24 43.691 30.43a139 139 0 0 1 8 16l.878 2.007c2.67 6.854 2.567 13.59 2.497 20.868l.035 3.645c-.058 17.757-6.367 33.434-18.41 46.48l-1.64 1.918c-5.423 5.984-12.504 9.955-19.36 14.082l-2.086 1.32c-16.065 9.232-36.902 8.367-54.217 4.08-19.862-5.507-33.952-18.2-44.697-35.4l-1.613-2.52c-1.515-2.709-2.532-5.349-3.512-8.293l-1.008-2.957c-3.951-14.72-4.255-34.333 2.133-48.23l.797-1.79c8.667-19.067 23.705-32.4 43.203-40.21 13.548-4.79 29.17-6.542 43-2m-42 9a167 167 0 0 0-.25 4.375c-.23 2.457-.23 2.457-.75 4.625-2.562 2.063-2.562 2.063-5 3 3 1.333 3 1.333 6 0l-1.836.96c-14.643 8.156-24.017 20.662-28.601 36.602-1.613 6.778-2.328 13.483-2.563 20.438l-2.875-.625L449 299c-2.397 2.397-2.347 3.079-2.437 6.375.306 11.839 7.27 20.768 14.437 29.625l1.34 1.84c8.162 10.95 24.566 18.263 37.66 21.16 3.555.409 7.05.477 10.625.438l2.89-.02c19.362-.421 35.913-7.696 50.06-20.809C570.45 330.213 578 318.513 578 308h-8c-1.125-7.625-1.125-7.625 0-11 .994-15.776-2.358-28.467-12.792-40.69-7.08-7.913-15.243-13.545-25.208-17.31 14.416 4.938 25.894 14.055 32.938 27.75A302 302 0 0 1 570 278l1-3c3.563-1.187 3.563-1.187 7-2v5l-1-3-4 1 1 5h6c-.604-12.09-5.748-21.528-13-31l-2.187-3.062c-2.026-2.166-3.028-2.288-5.813-2.938l-.762-1.781c-4.527-8.112-17.666-11.722-26.023-14.309L529 227l-1.89-.544c-8.936-1.93-32.025-3.54-39.11 3.544"/><path fill="#2a2b49" d="m259 586 22.75-.375 7.104-.166c13.078-.176 21.71.622 32.209 8.979 4.41 5.832 5.894 11.39 4.937 18.562-3.357 9.187-10.74 12.79-19 17a890 890 0 0 0 15.703 19.238L325 652l2.297 2.73C329 657 329 657 329 659c-5.044.858-10.048 1.543-15 0-5.34-3.855-8.756-10.44-12.212-15.923-4.724-7.539-4.724-7.539-12.224-11.73-5.979-.837-11.44-.553-17.564-.347v28h-13z"/><path fill="#2d2e4c" d="m641.188 584.813 2.712-.038c9.302-.02 17.481.981 25.288 6.288l1.807 1.21c8.175 5.691 12.559 11.83 14.571 21.68 1.66 11.66-.062 21.382-6.945 31.063-2.306 2.823-4.639 4.883-7.621 6.984h-2v2l1.625.688c3.16 1.746 5.643 3.952 8.375 6.312-2.257 2.335-4.28 4.187-7 6-4.631-.365-7.87-3.828-11.367-6.602-3.46-1.837-4.824-1.228-8.633-.398-12.632.92-24.689 1.321-36-5l-2.086-1.129c-6.52-4.085-13.268-12.35-15.472-19.741-.782-3.765-.668-7.547-.692-11.38l-.062-2.488c-.064-10.064 3.538-16.93 10.312-24.262 9.513-8.902 20.581-11.179 33.188-11.187M615 606c-5.008 6.695-5.056 14.971-4 23 2.775 8.575 8.111 14.342 15.758 18.93 8.544 4.078 17.914 3.927 26.754 1.043 8.157-3.189 13.681-8.249 18.129-15.735 2.662-6.343 2.437-14.12.703-20.746-.935-2.055-1.967-3.704-3.344-5.492l-1.402-1.855c-5.583-6.402-13.175-9.915-21.614-10.555C633.26 594.098 624.1 596.72 615 606"/><path fill="#2d2f4d" d="M472 586h65c0 9 0 9-2.16 12.004l-2.903 2.558q-1.537 1.41-3.07 2.825L526 606a118 118 0 0 0-3.437 3.875c-7.71 9-15.948 17.555-24.063 26.188l-2.068 2.2-1.963 2.085-1.737 1.844c-1.881 1.964-3.808 3.884-5.732 5.808l51 1v10h-71c0-9 0-9 1.469-11.114l2.031-1.421c3.098-2.368 5.839-4.729 8.5-7.586l2-2.147 2-2.17c4.64-5.006 9.32-9.938 14.19-14.722 1.853-1.884 3.59-3.835 5.31-5.84 3.034-3.534 6.26-6.806 9.605-10.043 2.115-2.184 3.996-4.584 5.895-6.957l-46-1z"/><path fill="#c59c49" d="m458 292 2 1 .25 3.625c1.164 12.395 7.951 25.104 17.016 33.465 9.153 7.363 17.912 11.031 29.484 12.598l2.883.431c11.35 1.563 23.408.395 33.246-5.986A111 111 0 0 0 550 331l2.75-2.562L555 326l1.418-1.367c4.684-4.84 6.866-10.542 9.285-16.719C567 305 567 305 569 304l2 4h7c-2.88 17.285-13.187 29.914-27 40-16.262 9.933-36.129 12.306-54.754 9.418C476.927 352.123 462.483 339.63 452 323c-3.822-6.936-6.517-13.984-5-22 2-2 2-2 4.938-2.125L455 300a132 132 0 0 1 3 8c5.99 15.547 14.457 27.72 30 35l2.996 1.43c10.428 4.348 20.837 4.488 32.004 4.57v-2l2.555-.621 3.32-.817 3.305-.808c2.745-.633 2.745-.633 4.82-1.754l-2.125.938c-6.936 2.563-14.2 2.346-21.5 2.437l-3.371.113c-15.017.158-26.408-7.08-37.129-17.05-7.608-7.849-14.367-18.405-15.07-29.528l.07-2.848.055-2.902z"/><path fill="#9c743a" d="M510 253h6v8l2.875-.25c4.99 0 9.898 1.626 14.125 4.25.879 1.938.879 1.938 1 4-1.437 3.25-1.437 3.25-3 6l-2.437-.875c-4.157-1.313-8.3-2.22-12.563-3.125v14l4.5.688c5.23 1.04 9.38 2.909 13.5 6.312 3.21 4.815 3.811 10.266 3 16-2.956 5.693-6.502 9.124-12.562 11.25C521 320 521 320 517 320v9h-8v-9l-3.25.375c-6.262.068-11.432-3.397-16.75-6.375.684-3.95 1.788-6.635 4-10 2.753 1.052 5.332 2.177 7.938 3.563 3.424 1.775 3.424 1.775 9.062 2.437v-16h-8c-2.39-.988-2.39-.988-4.25-2.312l-1.89-1.301L494 289l-2.2-1.312C490 286 490 286 489.435 283.363c.009-7.09.699-12.02 5.566-17.363 4.683-4.151 8.967-4.732 15-5z"/><path fill="#f3d87f" d="M557.504 240.57C559 242 559 242 560 245l1.785.352c5.1 1.493 8.397 8.341 11.215 12.648 1.921 3.584 3.533 7.21 5 11l1.313 3.313c.763 2.986.833 5.617.687 8.687h-6l-1-5 4-1 1 3v-5c-3.488.77-3.488.77-7 2l-1 3-1.031-2.457C561.762 259.078 552.137 248.168 536 240h-2l1.871.848c15.909 7.53 26.168 19.03 33.008 35.234 2.971 9.537 2.28 21.857-1.879 30.918l-2 2c.895-6.518.895-6.518 1.512-9.34 2.38-12.967-.374-25.702-7.512-36.723a96 96 0 0 0-3-3.937c-.755-.977-1.51-1.954-2.29-2.96-8.427-10.014-23.116-16.339-35.91-17.513-8.902-.47-16.34 1.105-24.628 4.282-2.75 1.033-5.281 1.718-8.172 2.191l3-3-3 1-3-1 2.438-.937c2.723-1.769 2.723-1.769 3.117-4.266A84 84 0 0 0 488 230c23.467-9.306 49.54-4.292 69.504 10.57"/><path fill="#c79e56" d="M528 221v1c-.664-.01-1.328-.02-2.013-.032-22.828-.313-43.278 1.13-61.19 17.122-4.832 5.136-8.893 11.055-12.797 16.91h-2c-.182.545-.364 1.09-.55 1.652C447 265 447 265 446.242 266.828c-2.725 7.022-2.78 13.83-2.743 21.297l.015 3.914c.176 9.602 1.292 17.232 5.485 25.961l1.352 3.168c7.144 15.745 19.426 26.842 35.246 33.613 18.558 6.648 39.948 6.224 58.117-1.601 3.312-1.71 6.348-3.74 9.375-5.91 2.358-1.568 4.331-2.238 7.16-2.395 7.551-2.403 12.908-11.366 16.75-17.875 3.236-6.763 4.606-13.547 5.508-20.957.492-3.043.492-3.043 1.539-5.875 1.232-4.096 1.172-7.796 1.078-12.043l-.027-2.375c-.024-1.917-.06-3.833-.098-5.75l2 1c.088 3.77.14 7.541.188 11.313l.076 3.189c.16 17.318-6.588 32.849-18.264 45.498l-1.64 1.918c-5.423 5.984-12.504 9.955-19.36 14.082l-2.086 1.32c-16.065 9.232-36.902 8.367-54.217 4.08-19.861-5.507-33.951-18.2-44.696-35.4l-1.613-2.52c-1.515-2.709-2.532-5.349-3.512-8.293l-1.008-2.957c-3.951-14.72-4.255-34.333 2.133-48.23l.797-1.79c8.667-19.067 23.705-32.4 43.203-40.21 11.793-4.169 29.323-7.945 41-2"/><path fill="#f8f8f9" d="M271 596q6.75-.08 13.5-.125c1.268-.017 2.537-.034 3.844-.05 15.388-.08 15.388-.08 20.75 3.62 3.05 3.643 5.005 6.68 4.625 11.559-1.496 4.153-4.987 6.843-8.719 8.996-4.279.907-8.345 1.118-12.71 1.098l-3.77-.01-3.895-.025-3.965-.014q-4.83-.02-9.66-.049z"/><path fill="#f6e09f" d="m516.875 220.75 3.395-.062c9.084-.043 16.63 1.652 24.855 5.5l2.258 1.042L549 228v2a85 85 0 0 0 4.75 2.875c9.76 6.058 19.937 15.21 24.25 26.125.14 2.785.14 2.785 0 5-2.735-2.477-4.51-5.24-6.437-8.375-9.31-15.12-25.287-25.396-42.5-29.625-19.124-3.38-38.696-.805-55.25 9.688C460.696 244.95 450.55 257.07 447 273l-.517 1.822c-2.636 11.884-1.296 26.705 2.517 38.178l.773 2.578c2.566 7.486 7.317 13.31 12.227 19.422l2.008 2.645c8.563 10.124 25.42 18.14 38.595 19.654 2.682.138 5.337.168 8.022.139l2.89-.02c18.86-.41 35.345-7.344 49.278-20.008 5.682-6.204 9.533-13.903 13.207-21.41 1.303 3.91.42 4.922-1.375 8.563-3.354 6.42-7.495 11.367-12.625 16.437l-2.086 2.152C550.821 351.958 539.328 356.697 527 359l-2.848.555c-20.47 2.891-40.081-1.948-56.59-14.368-8.843-7.624-15-16.495-19.562-27.187l-1.477-3.074c-6.05-14.553-6.387-34.644-1.148-49.488A88 88 0 0 1 448 260l1.164-2.34L450 256h2l.715-1.605c8.185-15.25 22.148-26.057 38.598-31.27 8.36-2.372 16.942-2.336 25.562-2.375"/><path fill="#232444" d="M752 586h12v72h-12z"/><path fill="#232545" d="M392 586h12v72h-12z"/><path fill="#155e46" d="M715 709h11q.074 8.51.11 17.023.015 2.89.04 5.781c.025 2.783.037 5.565.045 8.348l.032 2.577c.001 8.218-.65 15.738-6.543 21.83-6.264 5.362-12.823 4.79-20.684 4.441v-8l1.793-.078c5.257-.377 8.384-.98 12.207-4.922 1.164-2.329 1.155-3.763 1.205-6.358l.06-2.73.051-2.951.063-3.018q.098-4.785.183-9.568l.131-6.477q.161-7.948.307-15.898"/><path fill="#155e46" d="M753 710h10q.111 9.207.165 18.414.022 3.13.061 6.26c.037 3.005.054 6.011.067 9.017.015.927.03 1.853.047 2.807.002 6.563-.747 11.637-5.313 16.682l-2.09 1.695-2.097 1.742c-3.689 2.773-6.388 2.487-10.965 2.446l-3.883-.028L736 769v-8l1.793-.113c6.617-.526 6.617-.526 12.207-3.887 2.261-5.158 2.34-10.025 2.414-15.555l.059-2.732c.06-2.862.106-5.725.152-8.588l.117-5.844q.142-7.14.258-14.281"/><path fill="#f4f7f6" d="M671.688 716.063c4.064 2.377 6.124 4.424 7.312 8.937.316 5.027.233 9.972 0 15-17.265.754-17.265.754-24-4-3.42-3.757-3.567-6.659-3.422-11.59.651-3.72 2.439-5.24 5.422-7.41 4.61-3.227 9.512-2.429 14.688-.937"/><path fill="#c09b4a" d="M568 308h10c-2.878 17.266-13.179 29.942-27 40a78.6 78.6 0 0 1-10 5l-2.586 1.129c-3.242 1.17-5.16.955-8.414-.129-1.375-2.562-1.375-2.562-2-5 2.993.998 3.948 1.752 6 4v-6l5-1v3h2v-5h2l2 4c1.604-1.185 1.604-1.185 3-3 .25-2.626.25-2.626 0-5l4 3-.562-2.375C551 338 551 338 552 336l6 3-2-3v-3l3 1 1-2h-2c-.99-6.432 2.419-10.067 6-15 2.111-3.276 3.038-5.153 4-9"/><path fill="#fbeda4" d="m513.25 225.75 2.988-.062c6.748-.036 12.424 1 18.762 3.312v1l-8-1v4l-4-1v-3l-2 1 1 5-5 1 10 2v1l-1.781-.08c-11.499-.442-21.452-.403-32.223 3.889-2.693 1.07-5.145 1.73-7.996 2.191l3-3-3 1-3-1 2.438-.937c2.723-1.769 2.723-1.769 3.117-4.266A84 84 0 0 0 488 230c8.57-3.398 16.059-4.203 25.25-4.25"/><path fill="#b48f47" d="m458 292 2 1 .25 3.625c1.164 12.395 7.951 25.104 17.016 33.465 9.153 7.363 17.912 11.031 29.484 12.598l2.883.431c11.35 1.563 23.408.395 33.246-5.986A111 111 0 0 0 550 331l2.75-2.562L555 326l1.418-1.367c4.684-4.84 6.866-10.542 9.285-16.719C567 305 567 305 569 304c-.3 8.082-3.693 13.81-8.652 20.094-1.793 2.536-2.002 4.86-2.348 7.906h2l-1 4-3-3 2 6-6-3v7l-3-1v4h-3l-1 3c-2-1-2-1-3.125-4.062L541 342c-2.244.499-4.25 1.105-6.375 2-6.791 2.587-14.085 2.286-21.25 2.375l-3.371.113c-15.017.158-26.408-7.08-37.129-17.05-7.608-7.849-14.367-18.405-15.07-29.528l.07-2.848.055-2.902z"/><path fill="#e0bf62" d="M470 253c-1.34 2.798-2.849 5.354-4.562 7.938-1.952 3.09-2.893 5.426-3.438 9.062q-.69 1.886-1.437 3.75c-3.397 8.915-4.05 17.764-4.563 27.25l-7-1-2 6h-1c-1.304-5.936-1.11-11.833-1.062-17.875l.013-3.242q.018-3.942.049-7.883l2-1c.652-2.025.652-2.025 1-4h5l-4-1v-3l7-2-1-4 4-1v3h2v-7h4l1-2-2-1c2.076-.553 3.844-1 6-1"/><path fill="#e9ca6a" d="M528 238c11.593.914 21.245 7.206 29.04 15.652C562.857 260.62 567.05 267.39 570 276l2.313-1.5C575 273 575 273 578 273v5l-2-1 1-2-3 2v4l7-1c.329 12.402.447 23.977-3 36h-2l2-8-9 1c-1.125-8.625-1.125-8.625 0-12 1.035-16.428-2.818-29.138-13.687-41.75-7.836-8.223-16.543-12.896-27.313-16.25z"/><path fill="#f3d68d" d="m516.875 220.75 3.395-.062c9.084-.043 16.63 1.652 24.855 5.5l2.258 1.042L549 228v2a85 85 0 0 0 4.75 2.875c9.76 6.058 19.937 15.21 24.25 26.125.14 2.785.14 2.785 0 5-2.735-2.477-4.51-5.24-6.437-8.375-9.31-15.12-25.287-25.396-42.5-29.625-19.353-3.42-39.202-.833-55.688 10.25l-2.914 2.078C468 240 468 240 465 241c.365-2.58.702-3.735 2.68-5.492A336 336 0 0 1 475 231l2.691-1.613c12.724-7.294 24.742-8.571 39.184-8.637"/><path fill="#c4a456" d="M543.063 246.5A202 202 0 0 1 548 250l1.797 1.277c9.57 7.326 16.046 20.024 18.203 31.723 1.469 15.067-2.965 28.721-12.07 40.73-4.677 5.516-9.327 9.304-15.93 12.27v-2a105 105 0 0 1 5.313-3.875c9.064-6.232 16.263-18.022 19.285-28.668 2.374-14.498-.932-27.412-8.645-39.742C548.082 250.774 534.23 243.345 521 241c-15.623-1.388-28.77 2.014-40.812 12.063A215 215 0 0 0 477 256l-2.687 2.5c-3.004 3.247-5.396 6.666-7.375 10.625-1.084 2.167-2.444 3.973-3.938 5.875.959-7.14 3.22-11.657 8-17l2.043-2.29c18.973-20.08 46.678-23.606 70.02-9.21"/><path fill="#b88e40" d="M451.938 298.875 455 300c.769 1.87 1.522 3.748 2.177 5.66 1.425 4.05 3.249 7.928 5.01 11.84l1.116 2.492A3104 3104 0 0 0 466 326l-3-1-2 5 6-1v7h-3l-1-2-1.812-.285c-5.621-1.837-8.975-10.414-11.594-15.383-2.508-5.633-3.612-11.177-2.594-17.332 2-2 2-2 4.938-2.125"/><path fill="#d2ad57" d="m468 239 2 1-1 2h2l.313 1.875c.562 2.49.562 2.49 3.687 4.125l-3 1v2l5-4 2 1-1.977 1.871c-5.49 5.32-10.114 10.55-14.023 17.129l-1-2 8-12c-2 .791-2 .791-4 2l-1 3-4-1 .563 2.375C462 262 462 262 461 264h-2v-3l-3 1v4c-2.647 1.46-3.894 2-7 2v3h5v3l-6-2-1 5c-1.924-5.812.661-11.237 3.223-16.523C454.883 252.245 461.32 245.62 468 239"/><path fill="#d3b06b" d="M528 221v1c-.664-.01-1.328-.02-2.013-.032-22.828-.313-43.278 1.13-61.19 17.122-4.832 5.136-8.893 11.055-12.797 16.91h-2c-.182.545-.364 1.09-.55 1.652C447 265 447 265 446.226 266.77c-3.014 7.489-2.492 15.124-2.29 23.043.048 2.11.092 4.22.123 6.33.028 1.9.073 3.8.12 5.701-.172 3.022-.583 4.633-2.18 7.157-.889-3.1-1.185-5.985-1.316-9.203l-.127-2.969-.12-3.078-.13-3.125q-.159-3.812-.307-7.625h-1c.89-17.52 10.43-33.247 23-45 15.264-13.115 45.692-27.34 66-17"/><path fill="#e8c677" d="M548 229c12.409 3.561 22.694 14.044 29.158 24.954C587.72 273.064 587.72 273.064 586 283q.01 3.375.125 6.75c.045 5.414-.547 9.676-2.34 14.754-.894 2.844-1.31 5.607-1.722 8.558-.827 5.375-2.22 10.262-5.063 14.938l-2 1c.75-5.507.75-5.507 1.972-7.925 7.076-14.286 7.065-35.613 2.262-50.438a349 349 0 0 0-1.597-4.559C577 264 577 264 576.75 260.563c-2.187-10.389-12.42-19.853-20.836-25.711a229 229 0 0 0-5.86-3.575L548 230z"/><path fill="#bb9b53" d="m458 292 2 1 .25 3.625c1.164 12.395 7.951 25.104 17.016 33.465 9.094 7.315 17.786 11.036 29.296 12.598l2.974.411c6.366.814 12.062 1.05 18.417.03L530 343l2 2c-6.234 1.143-12.302 1.296-18.625 1.375l-3.371.113c-15.017.158-26.408-7.08-37.129-17.05-7.608-7.849-14.367-18.405-15.07-29.528l.07-2.848.055-2.902z"/><path fill="#f8e29c" d="m513.75 220.75 2.535-.062 2.45-.016 2.194-.028c2.645.455 4.054 1.635 6.071 3.356l-1.83.06c-20.443.705-37.519 2.009-54.71 14.268C468 240 468 240 465 241c.365-2.58.702-3.735 2.68-5.492A336 336 0 0 1 475 231l2.691-1.613c11.617-6.66 22.823-8.554 36.059-8.637"/><path fill="#c59f49" d="m540 342 2 2c-.375 2.625-.375 2.625-1 5h-2v-3l-4 1-1 6c-2.993-.998-3.948-1.752-6-4l2 5h2v2c-5.936 1.304-11.833 1.11-17.875 1.063l-3.242-.014q-3.941-.018-7.883-.049l2-5 1.688 1.063c2.914 1.181 4.362.946 7.312-.063l2-3 4 1h-2v3h2l.75-3.312c.805-1.938.805-1.938 2.25-3.688 2.979-1.174 5.848-1.807 8.992-2.395 2.872-.578 5.331-1.435 8.008-2.605"/><path fill="#eccc6e" d="M470 253c-1.663 3.558-3.75 6.763-5.875 10.063-3.225 5.091-5.554 10.128-7.336 15.89C456 281 456 281 454 282v-3l-7 1 1-8h5l-4-1v-3l7-2-1-4 4-1v3h2v-7h4l1-2-2-1c2.076-.553 3.844-1 6-1"/><path fill="#d5af53" d="M570 308h8c-1.943 11.66-7.381 21.074-15 30-.99-3.426-.715-5.516 0-9l-1-3h6v-3h-2v2h-3v-3l4-1 .313-1.937L568 317l3-1-3-3z"/><path fill="#eece7a" d="m464 239 2 3-1.469 1.293C455.777 251.458 449.612 261.277 447 273l-.517 1.822C443.82 286.827 445.352 301.38 449 313q.596 2.156 1.188 4.313L451 320h-2q-1.222-3.124-2.437-6.25l-1.372-3.516c-5.153-13.99-4.523-34.214 1.52-47.8L448 260l1.164-2.34L450 256h2l.68-1.578c1.814-3.329 4.11-6.195 6.445-9.172l1.418-1.824Q462.269 241.21 464 239"/><path fill="#edcf71" d="M537.285 229.566c6.427 2.305 12.496 4.924 17.715 9.434v2l-2.375.25c-2.772.478-2.772.478-3.937 2.813L548 246c-5.288-1.813-8.886-4.329-12-9-.125-2.687-.125-2.687 0-5h-3v-2c2-1 2-1 4.285-.434"/><path fill="#c39e4e" d="m468 239 2 1-1 2h2l.313 1.875c.562 2.49.562 2.49 3.687 4.125l-3 1v2l5-4 2 1-1.977 1.871c-5.49 5.32-10.114 10.55-14.023 17.129l-1-2 8-12-5 1-.875-2.875c-.893-3.177-.893-3.177-3.125-5.125z"/><path fill="#b08943" d="M451.938 298.875C455 300 455 300 455.988 301.609c.797 2.109 1.42 4.217 2.012 6.391l1.313 3.688c.76 3.66.637 5.154-1.313 8.312l-3 1 1-3h2v-2h-2v-4l-2.375-.437C451 311 451 311 449 310l-1 3c-1.239-2.478-1.167-4.237-1.187-7l-.043-2.687c.369-3.706 1.55-4.284 5.168-4.438"/><path fill="#edcf70" d="m498 227 2 8-9 3 4.125-1c3.7-.83 7.067-1.195 10.875-1-3.043 2.029-5.107 2.664-8.625 3.5l-3.21.77A922 922 0 0 1 482 243c1.634-1.708 2.87-2.935 5-4 .467-2.126.467-2.126.625-4.562l.227-2.504L488 230q1.935-.755 3.875-1.5l2.18-.844C496 227 496 227 498 227"/><path fill="#cca34e" d="M462 324c5.249 2.125 9.06 5.153 12 10v4h-2v-3h-2v4l5 2v-2h2c-.187 1.875-.187 1.875-1 4-2.562 1.25-2.562 1.25-5 2a451 451 0 0 1-3.875-3.25l-2.18-1.828c-1.916-1.893-2.91-3.459-3.945-5.922h2l1-2v4h3v-7l-6 1z"/><path fill="#cfae59" d="M528 238c11.593.914 21.245 7.206 29.04 15.652 10.234 12.253 14.138 23.086 14.148 38.91l.037 3.155.005 3.037.013 2.76c-.255 2.611-.92 4.242-2.243 6.486-1.125-7.625-1.125-7.625 0-11 1.035-16.428-2.818-29.138-13.687-41.75-7.836-8.223-16.543-12.896-27.313-16.25z"/><path fill="#f7e392" d="m507.422 225.902 3.105.01 3.223.025 3.27.014q3.99.018 7.98.049v1l-7 1-1 5h-3v-5l-4 1v4l-10 1c-2-3-2-3-2-7 3.208-.954 6.082-1.116 9.422-1.098"/><path fill="#d6b056" d="m548 340 2 4h5c-4.606 5.653-12.262 8.603-19 11-3.187-.062-3.187-.062-6-1-1.375-2.562-1.375-2.562-2-5 2.993.998 3.948 1.752 6 4v-6l5-1v3h2v-5h2l2 4c1.604-1.185 1.604-1.185 3-3 .25-2.626.25-2.626 0-5"/><path fill="#e0be81" d="M548 229c12.409 3.561 22.694 14.044 29.158 24.954 10.605 19.185 10.605 19.185 9.4 25.28L586 281c-2.503-3.755-3.622-7.056-4.625-11.437-4.614-16.647-16.61-29.7-31.355-38.32L548 230z"/><path fill="#dab55c" d="M445 279h1v13l3-2c5.556.556 5.556.556 7 2 .072 1.52.084 3.042.063 4.563l-.028 2.503L456 301l-7-1-2 6h-1c-1.205-5.635-1.113-11.145-1.062-16.875l.013-2.953q.018-3.585.049-7.172"/><path fill="#155e46" d="M725 689c2 3 2 3 1.75 5.563C726 697 726 697 724 699c-3.137.334-5.166.528-7.875-1.187-1.532-2.468-1.553-3.958-1.125-6.813 2.403-4.24 5.785-3.073 10-2"/><path fill="#155e46" d="M660 688c1.875 1.188 1.875 1.188 3 3 .438 2.5.438 2.5 0 5-2.128 2.286-3.474 2.923-6.562 3.375C654 699 654 699 652.188 697.813c-1.613-2.462-1.621-3.924-1.188-6.813 2.265-3.649 4.968-3.504 9-3"/><path fill="#155e46" d="M291 777c1.938 1.125 1.938 1.125 3 3-.125 3.063-.125 3.063-1 6-3.233 2.155-4.252 2.469-8 2-1.812-1.187-1.812-1.187-3-3-.428-2.855-.407-4.345 1.125-6.812 2.747-1.74 4.693-1.586 7.875-1.188"/><path fill="#155e46" d="M677 689c2 3 2 3 1.813 5.563C678 697 678 697 675 699c-6.566-.566-6.566-.566-8-2-.266-3.058-.434-5.208 1.063-7.937 3.153-1.73 5.562-.922 8.937-.063"/><path fill="#d5ac56" d="m495 358 3.438.5c10.4 1.154 21.213 1.005 31.562-.5l-1 4c-3.966.723-7.808 1.165-11.836 1.316l-3.223.127-3.316.12-3.387.13q-4.119.159-8.238.307v-3h-3z"/><path fill="#155e46" d="M302.938 776.688c3.062.312 3.062.312 4.937 1.5 1.532 2.467 1.553 3.957 1.125 6.812-1.187 1.813-1.187 1.813-3 3-2.437.438-2.437.438-5 0-2.375-1.687-2.375-1.687-4-4 .213-4.482 1.227-6.811 5.938-7.312"/><path fill="#f4da85" d="M557 258c6.86 5.85 12.056 14.981 13 24 .532 8.611.665 17.014-3 25l-2 2c.895-6.518.895-6.518 1.512-9.34 2.664-14.515-1.287-27.675-9.512-39.66z"/><path fill="#b2954d" d="M517 239c11.55-1.074 21.918 4.406 31 11l1.805 1.281c4.878 3.741 9.334 8.769 11.07 14.719l.125 2c-2.314-2.149-4.074-4.12-5.75-6.812-8.6-12.185-23.96-18.59-38.25-21.188z"/><path fill="#ddc07f" d="M528 221v1c-.664-.01-1.328-.02-2.013-.032-25.393-.657-25.393-.657-48.585 8.755C475 232 475 232 472.688 231.687L471 231c15.56-8.525 39.417-18.952 57-10"/><path fill="#c7a352" d="M488 338a618 618 0 0 1 5.62 2.186c4.27 1.46 8.669 1.983 13.13 2.564l2.933.398c6.302.787 11.98.99 18.27-.02L530 343l2 2c-6.234 1.143-12.302 1.296-18.625 1.375l-3.371.113c-8.242.087-14.737-1.543-22.004-5.488l-2-2z"/><path fill="#c89e58" d="M473 353c8.566.185 15.284 2.35 23 6v2l6-1v3c-10.343.962-20.415-3.587-29-9z"/><path fill="#dbb666" d="m541 340 2 1c-6.68 3.852-12.264 5.819-20 6v2c-3.417.058-6.833.094-10.25.125l-2.934.05-2.832.02-2.602.032c-2.561-.244-4.177-.937-6.382-2.227 3.162-.92 6.072-1.162 9.36-1.246l3.132-.1q3.234-.09 6.469-.172c7.398-.243 14.164-.859 20.914-4.17z"/><path fill="#c8a159" d="M440 282h1l1 23h2c1.901 6.465 1.901 6.465 2.438 9.375.853 3.981 2.23 7.781 3.562 11.625-2.792-2.408-3.897-4.761-5.187-8.187l-1.043-2.731L443 313l-2 1c-1.657-7.413-2.193-14.617-2.187-22.187l-.002-2.576c.054-6.102.054-6.102 1.189-7.237"/><path fill="#e6ca8c" d="m564 307 2 3c-4.926 10.826-10.323 18.089-19.562 25.438l-1.643 1.326c-3.55 2.714-6.347 3.868-10.795 4.236 2.984-3.219 6.092-5.439 9.813-7.75 10.461-6.932 15.053-15.14 20.187-26.25"/><path fill="#dabb63" d="M517 296c6 2 6 2 8 4 .479 3.672.474 5.356-1.75 8.375C521 310 521 310 517 310z"/><path fill="#bd9541" d="m523 348 3 1-1 1-1 7h-21l2-5 1.688 1.063c2.914 1.181 4.362.946 7.312-.063l2-3 4 1h-2v3h2z"/><path fill="#f5da95" d="M492.75 355.438c6.203 1.648 12.096 1.838 18.5 1.812l2.831-.01c4.198-.056 8.252-.24 12.403-.88C530 356 530 356 533 358c-14.703 3.173-29.495 3.15-44-1l-3-2c2.773-1.386 3.822-.515 6.75.438"/><path fill="#99783d" d="M568 304c1.3 2.957.952 4.137-.125 7.25-5.23 10.998-13.255 21.485-23.875 27.75h-2v-2c1.574-1.332 1.574-1.332 3.688-2.812 3.433-2.499 6.416-5.063 9.312-8.188l1.426-1.375c4.68-4.837 6.907-10.557 9.375-16.71C567 305 567 305 568 304"/><path fill="#f9e7aa" d="m513.688 220.688 2.548-.05 2.463-.001 2.214-.01C523 221 523 221 527 224l-31 1c1-2 1-2 3.957-3.105 4.56-1.187 9.043-1.226 13.73-1.208"/><path fill="#ba904d" d="M536 296c2.152 3.228 2.2 4.284 2 8h2c-1.21 6.449-4.02 10.7-9 15-3.784 2.05-7.843 2.977-12 4l-1 5h-1v-8l2.195-.48c6.788-1.639 11.986-3.162 15.95-9.29 1.12-2.921 1.048-5.361.98-8.48l-.055-3.266z"/><path fill="#d9ac53" d="M572 328h2l1 3c-3.326 5.579-8.104 10.756-13 15h-4c1.439-3.338 3.237-5.396 5.875-7.875 2.495-2.414 4.658-4.68 6.5-7.625z"/><path fill="#f6dd84" d="M576 268c2 1 2 1 3.125 3.688.864 3.27 1.035 5.95.875 9.312h-6l-1-5 4-1 1 3v-5c-3.488.77-3.488.77-7 2l-1 3c-2.125-4.625-2.125-4.625-1-8h7z"/><path fill="#b58a45" d="m449 310 7 2v4h2c0 2 0 2-1.5 3.625L455 321l4-1-1 3h-6c-2.219-4.622-3.383-7.768-3-13"/><path fill="#f5dc98" d="M560 240c5.505.893 8.521 4.921 12 9 6.43 8.953 6.43 8.953 6 15-2.735-2.477-4.51-5.24-6.437-8.375-4.147-6.81-4.147-6.81-9.813-12.312L560 242z"/><path fill="#f7e08e" d="M503 235c8.155.447 16.043 1.112 24 3v1l-1.781-.08c-11.499-.442-21.452-.403-32.223 3.889-2.693 1.07-5.145 1.73-7.996 2.191 2.72-3.553 6.59-4.421 10.688-5.687l2.126-.682A700 700 0 0 1 503 237z"/><path fill="#e6c877" d="m521 236 7 1v2l2.375.188c11.156 2.5 20.81 9.8 27.625 18.812h-3a976 976 0 0 1-4-5c-2.129-1.646-4.18-3.124-6.437-4.562l-1.844-1.19c-5.104-3.156-10.217-4.934-16.074-6.299-3.05-1.094-4.003-2.212-5.645-4.949"/><path fill="#d9b061" d="m585 280 2 1c.059 3.812.094 7.625.125 11.438.017 1.069.034 2.138.05 3.24.04 6.446-.51 12.09-2.175 18.322h-3c-.279-4.276.03-7.345 1.5-11.375 2.42-7.319 1.738-15.017 1.5-22.625"/><path fill="#c79d47" d="M568 308h1l-.187 2.25c.218 3.204 1.09 4.39 3.187 6.75h-4v5h-5v3h3v-2h2v3l-7 1c-.64-1.762-.64-1.762-1-4 .89-1.895.89-1.895 2.25-3.812 2.439-3.621 4.145-7.134 5.75-11.188"/><path fill="#d4b868" d="M510 271v12c-4-1-4-1-7-3-.408-3.196-.567-5.15 1.25-7.875C506 271 506 271 510 271"/><path fill="#dcba5c" d="M488 230v9l-4 2c-2.25-.875-2.25-.875-4-2v-3l-3-1q2.467-1.254 4.938-2.5l2.777-1.406C487 230 487 230 488 230"/><path fill="#e8c16b" d="m582 298 3 1-.875 3.25c-.904 3.545-1.48 7.067-2 10.688-.864 5.405-2.262 10.353-5.125 15.062l-2 1c.753-5.518.753-5.518 1.972-7.892 1.157-2.373 1.624-4.498 2.098-7.092l.528-2.832.527-2.934.55-2.98q.671-3.634 1.325-7.27"/><path fill="#b78c3b" d="M473 334c3.817 1.555 6.192 4.036 9 7h-2l-1 5-6-1 1.438-1.312c1.799-1.711 1.799-1.711 2.562-4.688h-2v2l-6-1 1-5h2v3h2z"/><path fill="#fcf2b8" d="M514 228v5l3 1-3.508.586-4.617.789-2.305.383c-4.36.752-8.368 1.825-12.57 3.242-2.375-.375-2.375-.375-4-1 6.593-2.96 12.633-5.36 20-5v-4c2-1 2-1 4-1"/><path fill="#155e46" d="m565 372 2 1v2c-9.435 4.152-19.74 5.41-30 5v-1l3.332-.516c7.895-1.276 15.245-2.686 22.664-5.812z"/><path fill="#aa8242" d="m477 252 2 1c-1.954 3.184-3.563 5.67-6.562 7.938-3.12 2.64-3.922 5.304-5.438 9.062-2.187 2.938-2.187 2.938-4 5 1.37-10.207 6.745-16.09 14-23"/><path fill="#e7c470" d="M481 336a237 237 0 0 1 5.46 3.52c4.87 2.839 10.247 4.584 15.54 6.48v1c-8.358-.279-16.563-2.937-22.852-8.695L478 337z"/><path fill="#155e46" d="M543.81 176.752c5.863.079 11.479.754 17.253 1.748l2.623.434q3.158.525 6.314 1.066c-3.549 2.366-4.576 2.109-8.687 1.625l-3.012-.336L556 181v-2h-16c2-2 2-2 3.81-2.248"/><path fill="#f8e085" d="M581 282v15l-1-2-5 1v-2l2-1c.924-1.862.924-1.862 1-4-1.354-1.772-1.354-1.772-3-3l1-3c3-1 3-1 5-1"/><path fill="#e4c56b" d="M543 234c8.714 1.714 8.714 1.714 12 5v2l-2.375.25c-2.772.478-2.772.478-3.937 2.813L548 246l-2-1 3-7-6 2a88 88 0 0 1-1-5z"/><path fill="#ddb777" d="M577 256c5.621 4.662 9.006 14.759 9.875 21.875L587 281c-3.67-2.74-4.379-6.803-5.562-11-1.628-5.746-1.628-5.746-4.438-11z"/><path fill="#e3c369" d="M456 261h3c.688 1.688.688 1.688 1 4-1.312 2.5-1.312 2.5-3 5a174 174 0 0 0-2 4l-1-2c-2.527-.656-2.527-.656-5-1v-3l7-2-.562-1.937L455 262z"/><path fill="#f3db8a" d="M466 323c4.074 1.61 6.765 4.538 9.75 7.625l1.535 1.563A897 897 0 0 1 481 336c-1.64.828-1.64.828-4 1a51 51 0 0 1-5.75-5.25l-1.535-1.527C466 326.408 466 326.408 466 323"/><path fill="#e1c278" d="m484 244 2 2-1.687 1.25c-5.557 4.205-10.495 8.724-15.313 13.75l-2 2c0-4.93 3.683-7.596 7-11 6.834-6.417 6.834-6.417 10-8"/><path fill="#e8cc74" d="M554 243h1l1 5 5-1-2 9c-6.875-5.625-6.875-5.625-8-9 1.375-2.187 1.375-2.187 3-4"/><path fill="#caa251" d="M449 299c5.875.875 5.875.875 7 2 .375 2.375.375 2.375 0 5-2.383 1.819-3.958 3-7 3v-4h3v-2l-5-1z"/><path fill="#f7e4a5" d="M576 316c1.303 3.91.42 4.922-1.375 8.563-3.3 6.39-7.575 11.364-12.625 16.437l-2-1 1.32-1.398c6.202-6.793 10.753-14.311 14.68-22.602"/><path fill="#dcb55e" d="M442 274h1q.289 6.512.537 13.025.087 2.214.187 4.429c.094 2.124.175 4.249.253 6.374l.158 3.872c-.128 3.122-.466 4.714-2.135 7.3-3.204-10.73-.696-23.921 0-35"/><path fill="#a7823c" d="M553 333a105 105 0 0 1 5 4v2l-6-3v7l-3-1-2 2v-3h-2v-2c1.75-1.508 1.75-1.508 4-3.125l2.25-1.633z"/><path fill="#f0d57d" d="M554.125 239.875 557 240l2 4-4 2-1-2-4 4-2-1c1.093-6.924 1.093-6.924 6.125-7.125"/><path fill="#d3ac59" d="M555 349v2a785 785 0 0 1-6.812 3.563l-1.948 1.037c-1.71.877-3.473 1.645-5.24 2.4l-3-1c2.357-2.636 4.785-4.11 7.938-5.687l2.59-1.325C551 349 551 349 555 349"/><path fill="#ecce7b" d="M458 306h2l.734 1.941c2.059 5.313 4.304 10.192 7.266 15.059h-2l-1 2a742 742 0 0 1-3.5-6.687l-1.012-1.897c-1.858-3.62-2.926-6.33-2.488-10.416"/><path fill="#155e46" d="M604 195c4.432 1.519 8.03 3.926 11.813 6.625l1.81 1.273q2.192 1.546 4.377 3.102c-3 1-3 1-6.574-.766a310 310 0 0 1-4.114-2.484l-2.126-1.238c-1.787-1.08-3.494-2.289-5.186-3.512z"/><path fill="#155e46" d="M444 381h24v1l-1.793.148c-4.995.402-4.995.402-9.644 2.102-4.369 1.279-8.396-.745-12.563-2.25z"/><path fill="#b39d59" d="M517 239c7.548-.702 16.123 1.35 22.395 5.637L541 246c-3.965 1.322-5.374.275-9.187-1.312-4.923-1.983-9.632-3.57-14.813-4.688z"/><path fill="#b89243" d="m552 336 6 3 1-2c-.75 4.75-.75 4.75-3 7-3.125.125-3.125.125-6 0l2-1-.562-2.375C551 338 551 338 552 336"/><path fill="#ca9f4c" d="m482 340 3 1v5l-1-2-2 1c-.656 2.527-.656 2.527-1 5-3.375-1.186-5.647-2.276-8-5h6l.375-1.937L480 341z"/><path fill="#f5de96" d="M527.305 222.04c4.717 1.075 8.718 2.044 12.695 4.96-3.975 1.516-7.205.499-11.25-.437l-3.828-.872L522 225c1.74-2.241 2.393-3.01 5.305-2.96"/><path fill="#efd68d" d="m466 262 1 2c-.926 2.61-.926 2.61-2.312 5.75-1.771 4.04-3.348 8.047-4.688 12.25h-1c-.998-7.322 2.447-12.76 6-19z"/><path fill="#fae5a3" d="M472 346c5.967 1.57 10.83 4.75 16 8-2.835 1.158-3.863 1.055-6.762-.11l-2.925-1.64-2.95-1.61C473 349 473 349 472 346"/><path fill="#d6a956" d="M451 328h3c2.043 2.406 2.043 2.406 4.188 5.5l2.167 3.094L462 339l-2 2a531 531 0 0 1-3.937-4.25l-2.215-2.39c-1.762-2.25-2.446-3.576-2.848-6.36"/><path fill="#ae893e" d="M568 304c1.323 3.006.946 4.151-.187 7.313-1.725 3.687-3.74 7.186-5.813 10.687h-2a981 981 0 0 1 4.563-11.25l1.316-3.203C567 305 567 305 568 304"/><path fill="#c19a50" d="M457 308c2.643 3.964 2.643 3.964 3 7-.75 2.688-.75 2.688-2 5l-3 1 1-3h2v-2h-2v-4h-4v-2h5z"/><path fill="#f6dd80" d="M506 227h-2l-1 7-4-1-1-6c3.053-.981 4.947-.981 8 0"/><path fill="#efd285" d="M533 357v1c-7.615 1.583-14.298 2.26-22 1v-1a758 758 0 0 1 7.063-1.062l1.99-.315c4.632-.662 8.403-.468 12.947.377"/><path fill="#eece85" d="M578 261c2 1 2 1 2.852 3.004 1.678 5.551 2.47 10.2 2.148 15.996-1.734-3.257-2.99-6.575-4.187-10.062l-1.106-3.16C577 264 577 264 578 261"/><path fill="#e4c26a" d="M470 253c-1.383 2.869-2.921 5.56-4.625 8.25l-1.352 2.14L463 265l-2-1v-7h4l1-2-2-1c2.076-.553 3.844-1 6-1"/><path fill="#d4b36f" d="m470 232 3 1a879 879 0 0 1-17 13c1.544-3.833 3.925-5.983 7-8.687l2.688-2.387C468 233 468 233 470 232"/><path fill="#e8cc8c" d="M528 221c7.393 1.651 14.206 3.62 21 7l-2 2-3-2a166 166 0 0 0-6.5-2.062l-3.469-1.036L531 224l-3-1z"/><path fill="#cda752" d="m548 340 2 4h5c-2.457 2.632-4.566 4.781-8 6l-3-1 2-1.687c2.255-2.154 2.255-2.154 2.25-5.063z"/><path fill="#d4b157" d="M570 283h1c.058 3.417.094 6.833.125 10.25.017.968.034 1.936.05 2.934l.02 2.832.032 2.602c-.244 2.561-.937 4.177-2.227 6.382-1.125-7.625-1.125-7.625 0-11 .226-2.393.408-4.79.563-7.187l.253-3.856z"/><path fill="#f0d377" d="M576 272h3l1 9h-6l-1-5 4-1 1 3v-5z"/><path fill="#cdb865" d="m509.11 237.902 2.285.01 2.355.025 2.402.014q2.925.02 5.848.049v1c-2.936.39-5.873.762-8.812 1.125l-2.526.34-2.432.293-2.237.285C504 241 504 241 501 239c2.777-.787 5.226-1.12 8.11-1.098"/><path fill="#edd27a" d="M460 264h2c-1.54 5.015-3.03 9.615-6 14-1.14-3.422-.835-4.262.313-7.562l.8-2.38C458 266 458 266 460 264"/><path fill="#d7b261" d="M530 318c-2.77 3.81-6.629 4.068-11 5l-1 5h-1v-8q2.684-.793 5.375-1.562l3.023-.88C528 317 528 317 530 318"/><path fill="#deba5f" d="M453 260c3.125-.187 3.125-.187 6 0l-3 2v4l-6 2c.547-3.375 1.055-5.082 3-8"/><path fill="#f9e791" d="M535 229v1l-8-1v4l-4-1v-3l-2-1c4.953-1.598 9.133-.283 14 1"/><path fill="#c59849" d="m491 358 5 1v2l6-1v3c-7.429.143-7.429.143-11-1z"/><path fill="#d0aa4d" d="M445 279h1v13l5-1-1.437 1.188c-1.915 2.22-2.176 3.946-2.563 6.812l-2-1z"/><path fill="#bc985d" d="M442 311c4.457 4.457 6.354 11.86 7 18-3.85-4.429-6.771-10.2-7.25-16.062z"/><path fill="#e1c076" d="m564 307 2 3-6 12-2-3z"/><path fill="#e0b661" d="m460 242 2 1a5234 5234 0 0 1-4.375 5.375l-2.46 3.023C453 254 453 254 451 256c1.466-6.597 3.562-10.012 9-14"/><path fill="#e4c164" d="M575 303h4c1.128 3.383.818 4.768.063 8.188l-.59 2.73L578 316h-2l2-8-3-1-1-2z"/><path fill="#e2bf65" d="M476 238c2.915 1.074 4.778 1.778 7 4v2l-4 1v-2l-3 1z"/><path fill="#edd373" d="M527 229c1.938.375 1.938.375 4 1 1.354 2.709 1.065 5.01 1 8l-4-1z"/><path fill="#f0d693" d="m558 341 3 1q-2.4 1.976-4.812 3.938l-2.708 2.214C551 350 551 350 548 351l-1-2 1.898-1.242 2.477-1.633 2.46-1.617c2.24-1.467 2.24-1.467 4.165-3.508"/><path fill="#f5db8d" d="M450 320c3.904 3.47 6.366 7.552 9 12l-3 1a637 637 0 0 1-3-4.812l-1.687-2.708C450 323 450 323 450 320"/><path fill="#cba54d" d="m471 242 2 6-2.375-.062c-2.606-.125-2.606-.125-4.625 1.062l-1-5c3.75-2 3.75-2 6-2"/><path fill="#f4d990" d="m473 233 1 3a466 466 0 0 1-3.375 2.5l-1.898 1.406C467 241 467 241 465 241c.34-3.175 1.025-4.023 3.438-6.25C471 233 471 233 473 233"/><path fill="#cca854" d="m564 329 3 2c-1.25 3.653-1.671 4.78-5 7-.125-3.375-.125-3.375 0-7z"/><path fill="#f3d677" d="M577 287h3l1 10-1-2-5 1v-2l2-1c.752-1.926.752-1.926 1-4z"/><path fill="#155e46" d="M616 285h3v7h-1l-1 8h-1z"/><path fill="#c39a47" d="m502 348-1 4h-4v-3h-2l-1 3v-4c2.862-1.43 4.934-.6 8 0"/><path fill="#f2dd89" d="M513 226h12v1l-7 1-1 5h-2v-6z"/><path fill="#155e46" d="M567 373v2l-9 3c2-4 2-4 4.5-5.312C565 372 565 372 567 373"/><path fill="#cca54c" d="M568 308h1l-.187 2.25c.218 3.204 1.09 4.39 3.187 6.75l-5 1c-1.158-4.054-.837-6.218 1-10"/><path fill="#ddb759" d="m570 308 2 2-1 3h3v3c-2.867-.573-3.861-.861-6-3z"/><path fill="#d9af56" d="M441 293h1c.391 1.913.762 3.831 1.125 5.75l.633 3.234c.253 3.153-.054 4.416-1.758 7.016-1.067-3.462-1.102-6.64-1.062-10.25l.027-3.266z"/><path fill="#155e46" d="M592 189c3.912 1.156 6.875 2.355 10 5-1.625.75-1.625.75-4 1-3.25-1.812-3.25-1.812-6-4z"/><path fill="#d6b570" d="m473 253 2 2-7 8-2-2z"/><path fill="#ebca75" d="m464 239 2 3-7 6c0-4.39 2.128-5.77 5-9"/><path fill="#ab7e3c" d="m454 317 3 1-2 3 4-1-1 3h-5z"/><path fill="#e6c567" d="M487 234h1v5l-4 2-3-2v-2l4-1v2h2z"/><path fill="#c9a456" d="M536 296c2.152 3.228 2.2 4.284 2 8h2c-1.75 4.875-1.75 4.875-4 6z"/><path fill="#e7c363" d="M448 272h5l-2 5-4-1z"/><path fill="#ebd075" d="m567 267 8 1c-1.187 1.5-1.187 1.5-3 3-2.687.188-2.687.188-5 0z"/><path fill="#c7a052" d="M466 264c1.25 1.563 1.25 1.563 2 4-1.068 2.57-2.465 4.653-4 7-1.136-3.41-.867-4.003.438-7.187l.87-2.168z"/><path fill="#f3d57a" d="M545 238h4a85 85 0 0 1-2 7h-2z"/><path fill="#ddb563" d="M549 354c-1.264.7-2.537 1.384-3.812 2.063l-2.145 1.16C541 358 541 358 538 357c1.916-2.448 2.972-2.993 6.063-3.75C547 353 547 353 549 354"/><path fill="#a97e3d" d="m449 310 7 2v2c-3.01.934-3.867 1.044-7 0z"/><path fill="#bb9446" d="m447 302 5 1v2h-3l-1 6h-1z"/><path fill="#f9e4a1" d="M568 248c2.375 1.063 2.375 1.063 5 3 1.313 3.688 1.313 3.688 2 7-3.394-3.126-5.606-5.565-7-10"/><path fill="#bf9b56" d="M485 247c-1.049 2.622-1.65 3.794-4.125 5.25L479 253v-3c3.333-3 3.333-3 6-3"/><path fill="#f6dc7d" d="m494 231 3 1v2l3 1-7 1z"/><path fill="#155e46" d="M291 777v1h-5l-.875 1.813C284 782 284 782 282 785c-.222-2.74-.348-4.44 1.125-6.812 2.65-1.68 4.807-1.393 7.875-1.188"/><path fill="#e1c486" d="m547 331 3 1-6 5-3-2c2.813-2.062 2.813-2.062 6-4"/><path fill="#886635" d="m494 268 2 1-1.437 2.125c-1.65 3.036-2.167 5.467-2.563 8.875h-1c-.37-7.385-.37-7.385 1.5-10.5z"/><path fill="#e5c664" d="m489 229 2 1c.625 3.063.625 3.063 1 6h-2v-2h-2z"/><path fill="#bf9741" d="m527 351 3 1v2h2v2h-5z"/><path fill="#c29545" d="M455 326h5l1 2-1 3c-1.937-.812-1.937-.812-4-2z"/><path fill="#c1a459" d="M561 267c2.9 2.395 3.502 4.312 4 8l-2 1-3-8z"/><path fill="#c49d57" d="M464 238c-1.502 4.206-4.286 5.739-8 8 1.517-3.54 3.753-8 8-8"/><path fill="#fae797" d="m497 235 3 2c-6.286 2.429-6.286 2.429-10 1 3.313-1.625 3.313-1.625 7-3"/><path fill="#fbeca8" d="M514 228v5h-4v-4c2-1 2-1 4-1"/><path fill="#c9a24f" d="M517 349h5l-1 6-3-1z"/><path fill="#c29b47" d="M544 342h2v2l3 1-3 1-1 3-2-1v-2h2z"/><path fill="#d0a752" d="M475 339h2c-.187 1.875-.187 1.875-1 4-2.562 1.25-2.562 1.25-5 2v-3l3-1z"/><path fill="#c69d48" d="m470 331 4 2v5h-2v-3h-2z"/><path fill="#b19655" d="M469 323c3.35 1.117 3.793 1.747 5.688 4.563l1.324 1.94L477 331c-3.362-1.44-5.592-3.248-8-6z"/><path fill="#c4a05e" d="M530 318c-2.174 2.5-3.73 3.436-7 4v-2l-2-1c6.75-2.125 6.75-2.125 9-1"/><path fill="#c49f55" d="m558 316 1 3c-1.937 3.188-1.937 3.188-4 6-.75-1.687-.75-1.687-1-4 1.938-2.75 1.938-2.75 4-5"/><path fill="#c49d4b" d="m449 299 6 1-2 3v-2h-3v2l-3-1z"/><path fill="#155e46" d="m626 211 3 3-3 1c-1.209 2-1.209 2-2 4 .875-6.875.875-6.875 2-8"/></svg>